<svg xmlns="http://www.w3.org/2000/svg" version="1.1" xmlns:xlink="http://www.w3.org/1999/xlink" xmlns:svgjs="http://svgjs.com/svgjs" width="1440" height="560" preserveAspectRatio="none" viewBox="0 0 1440 560"><g mask="url(&quot;#SvgjsMask1007&quot;)" fill="none"><rect width="1440" height="560" x="0" y="0" fill="rgba(0, 180, 216, 1)"></rect><path d="M0,484.239C94.655,484.938,187.966,467.089,271.156,421.927C358.724,374.388,449.675,314.616,484.452,221.242C518.661,129.394,474.416,30.474,452.538,-65.065C432.446,-152.806,409.773,-237.378,361.967,-313.646C307.373,-400.742,255.554,-505.521,157.372,-535.96C59.053,-566.442,-42.592,-508.206,-137.569,-468.518C-223.603,-432.566,-308.624,-390.65,-366.09,-317.219C-422.01,-245.764,-432.305,-153.453,-453.229,-65.164C-476.304,32.199,-530.549,132.513,-494.828,225.98C-458.791,320.272,-358.083,371.235,-268.594,417.941C-185.15,461.492,-94.122,483.544,0,484.239" fill="#0090ad"></path><path d="M1440 1157.277C1564.982 1189.411 1717.559 1229.568 1819.231 1150.095 1922.143 1069.653 1869.304 899.6469999999999 1922.319 780.268 1974.482 662.809 2145.307 588.419 2125.0280000000002 461.508 2104.663 334.06 1929.326 305.3 1832.745 219.685 1752.0810000000001 148.17899999999997 1697.445 54.488 1604.427 0.014000000000010004 1490.336-66.80100000000004 1363.083-170.89599999999996 1237.7640000000001-128.75099999999998 1111.635-86.33299999999997 1099.808 89.63499999999999 1020.408 196.42200000000003 948.837 292.679 821.703 350.355 794.642 467.212 767.045 586.383 804.844 718.237 876.635 817.28 943.594 909.658 1070.638 923.79 1168.32 982.742 1262.38 1039.508 1333.598 1129.921 1440 1157.277" fill="#04d5ff"></path></g><defs><mask id="SvgjsMask1007"><rect width="1440" height="560" fill="#ffffff"></rect></mask></defs></svg>